<?xml version="1.0" standalone="no"?>
<!DOCTYPE svg PUBLIC "-//W3C//DTD SVG 20010904//EN"
 "http://www.w3.org/TR/2001/REC-SVG-20010904/DTD/svg10.dtd">
<svg version="1.0" xmlns="http://www.w3.org/2000/svg"
 width="725.008846pt" height="56.609122pt" viewBox="0 0 725.008846 56.609122"
 preserveAspectRatio="xMidYMid meet">
<metadata>
Created by potrace 1.16, written by Peter Selinger 2001-2019
</metadata>
<g transform="translate(-0.051029,56.766978) scale(0.100000,-0.100000)"
fill="#000000" stroke="none">
<path d="M2199 560 c-229 -21 -294 -75 -374 -313 -34 -102 -33 -150 3 -187 42
-42 88 -51 282 -57 178 -6 340 6 415 29 85 27 153 131 197 300 21 81 22 90 8
130 -12 35 -23 47 -60 65 -75 38 -267 51 -471 33z m206 -102 c50 -23 45 -98
-15 -222 -62 -130 -83 -146 -186 -146 -94 0 -109 14 -101 100 7 82 77 225 126
257 38 26 131 32 176 11z"/>
<path d="M304 546 c-98 -16 -157 -46 -200 -103 -42 -55 -96 -203 -102 -280 -4
-58 -2 -64 25 -92 51 -51 78 -54 466 -58 l358 -5 -7 49 c-5 41 -1 61 29 133
l35 85 -216 3 c-119 1 -222 0 -229 -2 -7 -3 -13 -14 -13 -24 0 -15 9 -21 40
-25 50 -6 70 -22 70 -53 0 -49 -67 -84 -158 -84 -85 0 -122 40 -108 115 8 39
60 167 84 203 27 41 88 65 153 60 68 -5 99 -27 99 -70 l0 -29 148 3 147 3 -1
43 c-1 59 -29 93 -95 116 -45 16 -87 20 -249 22 -126 2 -224 -2 -276 -10z"/>
<path d="M1066 518 c9 -18 14 -44 11 -62 -8 -53 -138 -359 -168 -398 -16 -20
-29 -39 -29 -42 0 -11 668 -6 720 5 62 13 106 49 144 118 l27 51 -155 0 -155
0 -16 -30 c-19 -38 -79 -57 -133 -44 -26 6 -38 15 -40 30 -3 22 112 311 148
372 l19 32 -195 0 -195 0 17 -32z"/>
<path d="M2834 526 c9 -14 16 -40 16 -58 0 -44 -144 -385 -177 -420 -35 -37
-27 -39 147 -36 l145 3 22 50 c13 28 33 70 45 95 l23 45 103 3 c83 2 102 0
102 -12 0 -7 -14 -46 -31 -86 -17 -40 -28 -78 -25 -86 4 -11 36 -14 157 -14
140 0 151 1 144 17 -11 28 -10 34 19 99 32 71 31 104 -4 121 l-24 12 29 11
c71 27 118 103 113 182 -2 42 -8 54 -31 72 -28 20 -40 21 -409 24 l-381 3 17
-25z m487 -56 c12 -7 19 -21 19 -38 0 -39 -46 -126 -74 -141 -25 -14 -135 -19
-154 -7 -17 11 -15 38 9 93 23 54 45 82 74 94 29 11 103 11 126 -1z"/>
<path d="M3762 534 c-20 -14 -72 -85 -72 -99 0 -3 56 -5 125 -5 l124 0 -56
-137 c-31 -76 -61 -144 -66 -150 -6 -9 -39 -13 -97 -13 -73 0 -92 -3 -114 -21
-26 -20 -56 -68 -56 -89 0 -7 115 -10 359 -10 348 0 359 1 385 21 26 20 56 68
56 89 0 6 -38 10 -103 10 -57 0 -106 3 -109 6 -4 3 20 69 52 147 l57 142 91 5
c71 4 95 9 112 25 19 17 50 72 50 90 0 3 -161 5 -358 5 -310 0 -361 -2 -380
-16z"/>
<path d="M4542 523 c13 -16 66 -82 116 -149 l91 -121 -34 -88 c-20 -49 -46
-101 -60 -115 -14 -14 -25 -29 -25 -33 0 -4 69 -7 153 -7 116 0 157 3 173 14
11 8 39 63 64 126 l43 111 183 129 c100 72 199 137 221 144 35 13 21 15 -168
15 l-207 1 -66 -45 c-36 -25 -66 -42 -66 -37 0 4 -15 25 -34 45 l-34 37 -188
0 -188 0 26 -27z"/>
<path d="M5646 523 c-14 -16 -87 -122 -161 -238 -75 -115 -152 -225 -171 -242
l-34 -33 111 0 c128 0 152 9 189 69 l25 41 131 0 132 0 10 -39 c8 -32 6 -42
-6 -55 -15 -15 -4 -16 129 -16 106 0 150 4 164 14 17 13 15 23 -49 245 -65
221 -67 232 -52 256 l16 25 -204 0 -204 0 -26 -27z m187 -305 c-5 -9 -147 -11
-156 -2 -3 3 20 45 51 92 l57 85 26 -84 c15 -46 24 -87 22 -91z"/>
<path d="M6428 528 c-8 -13 -54 -119 -103 -237 -49 -118 -99 -226 -112 -242
-13 -15 -23 -30 -23 -33 0 -4 75 -5 167 -4 193 3 166 -13 229 140 l36 88 84 0
c46 0 84 -2 84 -5 0 -3 -16 -44 -35 -92 -40 -100 -40 -97 -19 -117 13 -13 43
-16 170 -16 89 0 154 4 154 9 0 5 -4 21 -9 34 -8 20 5 62 75 233 46 115 93
221 104 237 l21 27 -161 0 c-184 0 -162 13 -219 -125 l-37 -90 -87 -3 c-48 -1
-87 -1 -87 2 0 13 73 173 86 187 8 8 14 19 14 22 0 4 -71 7 -159 7 -154 0
-159 -1 -173 -22z"/>
</g>
</svg>
